<svg width="60" height="70" viewBox="0 0 60 70" fill="none" xmlns="http://www.w3.org/2000/svg">
<g id="bi:apple" clip-path="url(#clip0_29_4556)">
<g id="Group">
<path id="Vector" d="M41.9325 0.0350307C41.805 -0.131219 37.2112 0.100656 33.2137 5.16253C29.2162 10.22 29.8312 16.0213 29.9212 16.17C30.0112 16.3188 35.6212 16.5507 39.2025 10.6663C42.7837 4.78191 42.06 0.205656 41.9325 0.0350307ZM54.36 51.3669C54.18 50.9469 45.6412 45.9682 46.4362 36.3957C47.2312 26.8188 52.7175 24.1938 52.8037 23.9094C52.89 23.625 50.565 20.4532 48.1012 18.8475C46.2923 17.7155 44.2902 17.0669 42.24 16.9488C41.835 16.9357 40.4287 16.5332 37.5375 17.4563C35.6325 18.0644 31.3387 20.0332 30.1575 20.1119C28.9725 20.1907 25.4475 17.8282 21.6562 17.2025C19.23 16.6557 16.6575 17.7757 14.8162 18.6375C12.9787 19.495 9.48372 21.9363 7.03872 28.4244C4.59372 34.9082 5.87247 45.1807 6.78747 48.3744C7.70247 51.5638 9.13122 56.7919 11.5612 60.6069C13.7212 64.9119 16.5862 67.9 17.7825 68.915C18.9787 69.93 22.3537 70.6038 24.6937 69.2082C26.5762 67.8607 29.9737 67.0863 31.3162 67.1432C32.655 67.2 35.295 67.8169 37.9987 69.5013C40.14 70.3632 42.165 70.0044 44.1937 69.0419C46.2225 68.075 49.1587 64.4088 52.5862 56.9757C53.8875 53.5194 54.48 51.6513 54.36 51.3669Z" fill="black"/>
<path id="Vector_2" d="M41.9325 0.0350307C41.805 -0.131219 37.2112 0.100656 33.2137 5.16253C29.2162 10.22 29.8312 16.0213 29.9212 16.17C30.0112 16.3188 35.6212 16.5507 39.2025 10.6663C42.7837 4.78191 42.06 0.205656 41.9325 0.0350307ZM54.36 51.3669C54.18 50.9469 45.6412 45.9682 46.4362 36.3957C47.2312 26.8188 52.7175 24.1938 52.8037 23.9094C52.89 23.625 50.565 20.4532 48.1012 18.8475C46.2923 17.7155 44.2902 17.0669 42.24 16.9488C41.835 16.9357 40.4287 16.5332 37.5375 17.4563C35.6325 18.0644 31.3387 20.0332 30.1575 20.1119C28.9725 20.1907 25.4475 17.8282 21.6562 17.2025C19.23 16.6557 16.6575 17.7757 14.8162 18.6375C12.9787 19.495 9.48372 21.9363 7.03872 28.4244C4.59372 34.9082 5.87247 45.1807 6.78747 48.3744C7.70247 51.5638 9.13122 56.7919 11.5612 60.6069C13.7212 64.9119 16.5862 67.9 17.7825 68.915C18.9787 69.93 22.3537 70.6038 24.6937 69.2082C26.5762 67.8607 29.9737 67.0863 31.3162 67.1432C32.655 67.2 35.295 67.8169 37.9987 69.5013C40.14 70.3632 42.165 70.0044 44.1937 69.0419C46.2225 68.075 49.1587 64.4088 52.5862 56.9757C53.8875 53.5194 54.48 51.6513 54.36 51.3669Z" fill="black"/>
</g>
</g>
<defs>
<clipPath id="clip0_29_4556">
<rect width="60" height="70" fill="white"/>
</clipPath>
</defs>
</svg>
