<svg width="22" height="24" viewBox="0 0 22 24" fill="none" xmlns="http://www.w3.org/2000/svg">
<g id="Group">
<path id="Vector" d="M22 4.5C22 3.67158 21.3285 3 20.5 3H16.724C16.0921 1.20736 14.4007 0.00609375 12.5 0H9.50002C7.59928 0.00609375 5.90789 1.20736 5.27602 3H1.5C0.671578 3 0 3.67158 0 4.5C0 5.32842 0.671578 6 1.5 6H2.00002V18.5C2.00002 21.5376 4.46245 24 7.5 24H14.5C17.5376 24 20 21.5376 20 18.5V6H20.5C21.3285 6 22 5.32842 22 4.5ZM17 18.5C17 19.8807 15.8807 21 14.5 21H7.5C6.1193 21 5.00002 19.8807 5.00002 18.5V6H17V18.5Z" fill="#E06560"/>
<path id="Vector_2" d="M8.5 18C9.32842 18 10 17.3284 10 16.5V10.5C10 9.67158 9.32842 9 8.5 9C7.67158 9 7 9.67158 7 10.5V16.5C7 17.3284 7.67158 18 8.5 18Z" fill="#E06560"/>
<path id="Vector_3" d="M13.5 18C14.3284 18 15 17.3284 15 16.5V10.5C15 9.67158 14.3284 9 13.5 9C12.6716 9 12 9.67158 12 10.5V16.5C12 17.3284 12.6716 18 13.5 18Z" fill="#E06560"/>
</g>
</svg>
