<svg width="24" height="24" viewBox="0 0 24 24" fill="none" xmlns="http://www.w3.org/2000/svg">
<g id="fi-br-angle-left">
<path id="Vector" d="M17.3586 3.31271C17.3583 3.66059 17.2198 3.9941 16.9737 4.23994L10.2627 10.951C10.0595 11.154 9.89839 11.3951 9.78846 11.6605C9.67852 11.9259 9.62194 12.2103 9.62194 12.4975C9.62194 12.7847 9.67852 13.0692 9.78846 13.3345C9.89839 13.5999 10.0595 13.841 10.2627 14.0441L16.9649 20.7463C17.204 20.9938 17.3362 21.3253 17.3332 21.6693C17.3302 22.0133 17.1922 22.3424 16.949 22.5857C16.7057 22.829 16.3766 22.967 16.0326 22.9699C15.6885 22.9729 15.3571 22.8407 15.1096 22.6017L8.40733 15.9046C7.50614 15.0017 7 13.7781 7 12.5023C7 11.2266 7.50614 10.003 8.40733 9.10001L15.1184 2.38461C15.3019 2.20099 15.5357 2.07592 15.7903 2.02525C16.0449 1.97457 16.3088 2.00055 16.5487 2.09991C16.7885 2.19927 16.9935 2.36754 17.1376 2.58343C17.2818 2.79931 17.3587 3.05311 17.3586 3.31271Z" fill="#2C2933"/>
</g>
</svg>
