<svg width="30" height="30" viewBox="0 0 30 30" fill="none" xmlns="http://www.w3.org/2000/svg">
<path id="Vector" d="M30 15C30 15.4774 29.8104 15.9352 29.4728 16.2728C29.1352 16.6104 28.6774 16.8 28.2 16.8H16.8V28.2C16.8 28.6774 16.6104 29.1352 16.2728 29.4728C15.9352 29.8104 15.4774 30 15 30C14.5226 30 14.0648 29.8104 13.7272 29.4728C13.3896 29.1352 13.2 28.6774 13.2 28.2V16.8H1.8C1.32261 16.8 0.864773 16.6104 0.527208 16.2728C0.189642 15.9352 0 15.4774 0 15C0 14.5226 0.189642 14.0648 0.527208 13.7272C0.864773 13.3896 1.32261 13.2 1.8 13.2H13.2V1.8C13.2 1.32261 13.3896 0.864773 13.7272 0.527208C14.0648 0.189642 14.5226 0 15 0C15.4774 0 15.9352 0.189642 16.2728 0.527208C16.6104 0.864773 16.8 1.32261 16.8 1.8V13.2H28.2C28.6774 13.2 29.1352 13.3896 29.4728 13.7272C29.8104 14.0648 30 14.5226 30 15Z" fill="white"/>
</svg>
