<svg width="160" height="160" viewBox="0 0 160 160" fill="none" xmlns="http://www.w3.org/2000/svg">
<g id="material-symbols:filter">
<path id="Vector" d="M60 93.3333H126.667L103.667 63.3333L88.3334 83.3333L78 70L60 93.3333ZM53.3334 120C49.6667 120 46.5289 118.696 43.92 116.087C41.3111 113.478 40.0045 110.338 40 106.667V26.6666C40 23 41.3067 19.8622 43.92 17.2533C46.5334 14.6444 49.6712 13.3378 53.3334 13.3333H133.333C137 13.3333 140.14 14.64 142.753 17.2533C145.367 19.8666 146.671 23.0044 146.667 26.6666V106.667C146.667 110.333 145.362 113.473 142.753 116.087C140.144 118.7 137.004 120.004 133.333 120H53.3334ZM26.6667 146.667C23 146.667 19.8623 145.362 17.2534 142.753C14.6445 140.144 13.3378 137.004 13.3334 133.333V40H26.6667V133.333H120V146.667H26.6667Z" fill="#968F8C"/>
</g>
</svg>
